<?xml version="1.0" encoding="UTF-8"?>
<svg id="_Шар_1" xmlns="http://www.w3.org/2000/svg" version="1.1" viewBox="0 0 78.32 103.61">
  <!-- Generator: Adobe Illustrator 30.3.0, SVG Export Plug-In . SVG Version: 2.1.3 Build 182)  -->
  <defs>
    <style>
      .st0 {
        fill: #141319;
      }
    </style>
  </defs>
  <path class="st0" d="M10.88,25.07h58.26c1.39,0,2.79.21,4.09.7,2.32.88,5.1,2.83,5.1,7.19v61.12s.19,8.97-12.11,9.29c-12.3.33-46.55.31-56.33,0C.09,103.07.02,90.98.02,90.98.02,90.98-.03,41.66.02,33.8c.04-5.68,5.17-7.71,8.01-8.4.93-.23,1.89-.33,2.85-.33Z"/>
  <path class="st0" d="M9.9,19.25c20.22.06,40.56.06,61.03,0-4.69-9.2-3.94-7.32-30.51-7.6-27.32.09-27.51-.09-30.51,7.6h0Z"/>
  <path class="st0" d="M18.02,7.91c14.84.07,29.77.07,44.79,0C59.37-1.66,59.92.29,40.42,0c-20.05.1-20.19-.1-22.4,7.91Z"/>
</svg>