<?xml version="1.0" encoding="UTF-8"?>
<svg id="_Шар_1" data-name="Шар 1" xmlns="http://www.w3.org/2000/svg" viewBox="0 0 78.32 103.61">
  <defs>
    <style>
      .cls-1 {
        fill: #141319;
      }
    </style>
  </defs>
  <path class="cls-1" d="M9.88,25.07h60.28s8.17.42,8.17,7.89v61.12s.19,8.97-12.11,9.29c-12.3.33-46.55.31-56.33,0C.09,103.07.02,90.98.02,90.98.02,90.98-.03,41.66.02,33.8s9.86-8.73,9.86-8.73Z"/>
  <path class="cls-1" d="M9.9,19.25q30.33.09,61.03,0c-4.69-9.2-3.94-7.32-30.51-7.6-27.32.09-27.51-.09-30.51,7.6Z"/>
  <path class="cls-1" d="M18.02,7.91q22.26.1,44.79,0C59.37-1.66,59.92.29,40.42,0c-20.05.1-20.19-.1-22.4,7.91Z"/>
</svg>