<?xml version="1.0" encoding="UTF-8"?>
<svg id="_Шар_1" data-name="Шар 1" xmlns="http://www.w3.org/2000/svg" viewBox="0 0 105.01 107.09">
  <defs>
    <style>
      .cls-1 {
        fill: #141319;
      }
    </style>
  </defs>
  <path class="cls-1" d="M25.62,63.5c4.72.21,10.13,12.7,12.2,22.15.5,2.27.73,4.25.84,5.74.04.5.12.99.23,1.48.02.09.04.19.06.29,1.44,7.22-4.19,13.93-11.56,13.92h-.22c-3.27,0-7.43-1.42-7.43-1.42-6.55-2.37-7.72-5.4-12.56-12.14-.65-.91-1.18-1.92-1.56-2.98C1.07,77.66.96,77.05.06,67.58c-.04-.37-.05-.74-.06-1.12-.01-4.52.42-19.89.54-24.19.02-.79.12-1.56.3-2.33,1.19-5.04,3.92-13.28,10.51-21.21C25.18,2.09,44.77.4,48.24.16c4.52-.31,18.29-1.06,31.34,7.8,9.29,6.31,13.62,14.38,16.55,20.01,12.93,24.83,11.1,56.53-1.26,69.69-1.43,1.52-6.44,5.38-13.59,8.01-.54.2-6.27,2.19-11.38-1.37-1.83-1.28-3.01-2.87-3.77-4.31-.9-1.73-1.29-3.68-1.23-5.63.45-14.42.99-25.72,11.66-30.07,6.74-2.74,11.97-2.83,11.77-3.4,1.55-.34,2.43-13.17-.65-21.64-3.16-10.4-10.42-16.48-13.36-18.95-2.41-2.03-9.55-7.5-20.02-7.96-13.12-.57-22.13,5-24.65,7.26-7.82,7.04-5.92,4.62-10.52,11.33-.79,1.16-1.45,2.44-1.72,3.82-6.12,30.81-6.59,28.74,8.21,28.76Z"/>
</svg>