<?xml version="1.0" encoding="UTF-8"?>
<svg id="_Шар_1" data-name="Шар 1" xmlns="http://www.w3.org/2000/svg" viewBox="0 0 78.92 98.32">
  <defs>
    <style>
      .cls-1 {
        fill: #fff;
      }

      .cls-2 {
        fill: #141319;
      }
    </style>
  </defs>
  <path class="cls-2" d="M.07,10.66v78.44c-.56,6.81,2.48,9.95,9.46,9.07h61.1c5.39.36,8.32-2.19,8.28-8.28V6.72c.25-4.89-3.6-6.91-10.64-6.7H7.56C3.09.22.67,3.88.07,10.66Z"/>
  <path class="cls-1" d="M31.3,9.89c-.42-.2-.29-.84.18-.84,2.67-.03,8.85.01,22.85.11,17.12,0,15.21-.04,15.21,18.34,0,.33-.34.56-.63.42-15.78-7.53-32.39-15.52-37.61-18.04Z"/>
  <path class="cls-1" d="M8.68,23.52c27.92,13.54,29.12,14.12,58.1,27.74,1.29.6,2.77-.33,2.77-1.75v-11.05c0-.72-.38-1.37-1.02-1.71-6.67-3.5-44.03-23.01-52.68-25.79-.19-.06-.38-.08-.58-.08-8.6-.04-8-1.6-7.69,10.92.02.73.46,1.41,1.11,1.73Z"/>
</svg>