<?xml version="1.0" encoding="UTF-8"?>
<svg id="_Шар_1" data-name="Шар 1" xmlns="http://www.w3.org/2000/svg" viewBox="0 0 98.44 94.43">
  <defs>
    <style>
      .cls-1 {
        fill: rgba(255, 255, 255, .85);
      }
    </style>
  </defs>
  <g>
    <rect y="3.67" width="68.04" height="66.77"/>
    <path d="M43.3,70.45l3.02-6.74c3.98-9.07,6.32-8.37,8.11-13.73l2.43-4.13c2.75-5.77.87,1.36,2.34-5.77h-15.9c-4.64,0-6.96,2.32-6.96,7.07v16.23c0,4.78,2.32,7.06,6.96,7.06Z"/>
    <path d="M6.92,70.45h16.52c4.6,0,6.92-2.28,6.92-7.06v-16.23c0-4.75-2.32-7.07-6.92-7.07H6.92c-4.6,0-6.92,2.32-6.92,7.07v16.23c0,4.78,2.32,7.06,6.92,7.06Z"/>
    <path d="M43.3,34.11h16.49c-.59-9.02.83-11.29,2.69-16.23l4.23-7.06c0-4.78-2.32-7.07-6.92-7.07h-16.49c-4.64,0-6.96,2.28-6.96,7.07v16.2c0,4.78,2.32,7.1,6.96,7.1Z"/>
    <path d="M6.92,34.11h16.52c4.6,0,6.92-2.32,6.92-7.1V10.81c0-4.78-2.32-7.07-6.92-7.07H6.92C2.32,3.75,0,6.03,0,10.81v16.2c0,4.78,2.32,7.1,6.92,7.1Z"/>
  </g>
  <path class="cls-1" d="M42.38,75.77c2.73,1.53,4.96.07,6.39-2.49l14.34-25.64c5.32-9.51,14.42-8.38,21.33-20.74,4.24-7.59,3.2-15.88-3.69-19.73-6.89-3.85-14.5-.4-18.75,7.18-6.91,12.35-1.19,19.52-6.5,29.03l-14.34,25.64c-1.43,2.56-1.51,5.22,1.22,6.75Z"/>
  <g>
    <rect x="47.69" y="1.04" width="29.31" height="92.35" transform="translate(32.65 -25.13) rotate(30.55)"/>
    <path d="M41.78,80.75c2.93,1.73,5.4.2,7.02-2.55l16.24-27.52c6.02-10.2,15.89-8.75,23.72-22.01,4.81-8.14,3.88-17.19-3.52-21.55-7.4-4.36-15.76-.81-20.57,7.34-7.83,13.26-1.78,21.2-7.81,31.41l-16.24,27.52c-1.62,2.75-1.77,5.64,1.16,7.37Z"/>
  </g>
</svg>